<svg version="1.1" xmlns="http://www.w3.org/2000/svg" xmlns:xlink="http://www.w3.org/1999/xlink" width="698.1799999999994" height="523"><style xmlns="http://www.w3.org/1999/xhtml"></style><defs/><g transform="translate(0,0)"><g><rect fill="rgb(0,0,0)" stroke="none" x="0" y="0" width="698.1799999999994" height="523" fill-opacity="0"/></g><g transform="translate(0,0) matrix(1,0,0,1,230,46.00000000000006)"><g><g transform="translate(0,0) scale(4.41,0.32)"><g><path fill="#FFFFFF" stroke="none" d="M 0 0 L 100 0 Q 100 0 100 0 L 100 100 Q 100 100 100 100 L 0 100 Q 0 100 0 100 L 0 0 Q 0 0 0 0 Z"/><g transform="scale(0.22675736961451246,3.125)"><path fill="none" stroke="none" d="M 0 0 L 441 0 Q 441 0 441 0 L 441 32 Q 441 32 441 32 L 0 32 Q 0 32 0 32 L 0 0 Q 0 0 0 0 Z"/><path fill="none" stroke="#333333" d="M 0 0 M 0 0 L 441 0 Q 441 0 441 0 L 441 32 Q 441 32 441 32 L 0 32 Q 0 32 0 32 L 0 0 Q 0 0 0 0 Z" stroke-miterlimit="10" stroke-width="2"/></g></g></g></g></g><g transform="matrix(1,0,0,1,247,54)"><g><g/></g><g><g/></g><g><g/></g><g><g/></g><g><g/><text fill="rgb(0, 0, 0)" stroke="none" font-family="&quot;Arial&quot;" font-size="20px" font-style="normal" font-weight="normal" text-decoration="" line-height="22.75px" x="0" y="18.383331298828125">I</text><text fill="rgb(0, 0, 0)" stroke="none" font-family="&quot;Arial&quot;" font-size="20px" font-style="normal" font-weight="normal" text-decoration="" line-height="22.75px" x="6" y="18.383331298828125">n</text><text fill="rgb(0, 0, 0)" stroke="none" font-family="&quot;Arial&quot;" font-size="20px" font-style="normal" font-weight="normal" text-decoration="" line-height="22.75px" x="17" y="18.383331298828125">i</text><text fill="rgb(0, 0, 0)" stroke="none" font-family="&quot;Arial&quot;" font-size="20px" font-style="normal" font-weight="normal" text-decoration="" line-height="22.75px" x="21" y="18.383331298828125">t</text><text fill="rgb(0, 0, 0)" stroke="none" font-family="&quot;Arial&quot;" font-size="20px" font-style="normal" font-weight="normal" text-decoration="" line-height="22.75px" x="27" y="18.383331298828125">i</text><text fill="rgb(0, 0, 0)" stroke="none" font-family="&quot;Arial&quot;" font-size="20px" font-style="normal" font-weight="normal" text-decoration="" line-height="22.75px" x="31" y="18.383331298828125">a</text><text fill="rgb(0, 0, 0)" stroke="none" font-family="&quot;Arial&quot;" font-size="20px" font-style="normal" font-weight="normal" text-decoration="" line-height="22.75px" x="42" y="18.383331298828125">l</text><text fill="rgb(0, 0, 0)" stroke="none" font-family="&quot;Arial&quot;" font-size="20px" font-style="normal" font-weight="normal" text-decoration="" line-height="22.75px" x="46" y="18.383331298828125">i</text><text fill="rgb(0, 0, 0)" stroke="none" font-family="&quot;Arial&quot;" font-size="20px" font-style="normal" font-weight="normal" text-decoration="" line-height="22.75px" x="50" y="18.383331298828125">z</text><text fill="rgb(0, 0, 0)" stroke="none" font-family="&quot;Arial&quot;" font-size="20px" font-style="normal" font-weight="normal" text-decoration="" line-height="22.75px" x="60" y="18.383331298828125">a</text><text fill="rgb(0, 0, 0)" stroke="none" font-family="&quot;Arial&quot;" font-size="20px" font-style="normal" font-weight="normal" text-decoration="" line-height="22.75px" x="71" y="18.383331298828125">t</text><text fill="rgb(0, 0, 0)" stroke="none" font-family="&quot;Arial&quot;" font-size="20px" font-style="normal" font-weight="normal" text-decoration="" line-height="22.75px" x="77" y="18.383331298828125">i</text><text fill="rgb(0, 0, 0)" stroke="none" font-family="&quot;Arial&quot;" font-size="20px" font-style="normal" font-weight="normal" text-decoration="" line-height="22.75px" x="81" y="18.383331298828125">o</text><text fill="rgb(0, 0, 0)" stroke="none" font-family="&quot;Arial&quot;" font-size="20px" font-style="normal" font-weight="normal" text-decoration="" line-height="22.75px" x="92" y="18.383331298828125">n</text><text fill="rgb(0, 0, 0)" stroke="none" font-family="&quot;Arial&quot;" font-size="20px" font-style="normal" font-weight="normal" text-decoration="" line-height="22.75px" x="103" y="18.383331298828125">:</text></g></g><g transform="translate(0,0) matrix(1,0,0,1,230,108.00000000000006)"><g><g transform="translate(0,0) scale(4.41,0.32)"><g><path fill="#FFFFFF" stroke="none" d="M 0 0 L 100 0 Q 100 0 100 0 L 100 100 Q 100 100 100 100 L 0 100 Q 0 100 0 100 L 0 0 Q 0 0 0 0 Z"/><g transform="scale(0.22675736961451246,3.125)"><path fill="none" stroke="none" d="M 0 0 L 441 0 Q 441 0 441 0 L 441 32 Q 441 32 441 32 L 0 32 Q 0 32 0 32 L 0 0 Q 0 0 0 0 Z"/><path fill="none" stroke="#333333" d="M 0 0 M 0 0 L 441 0 Q 441 0 441 0 L 441 32 Q 441 32 441 32 L 0 32 Q 0 32 0 32 L 0 0 Q 0 0 0 0 Z" stroke-miterlimit="10" stroke-width="2"/></g></g></g></g></g><g transform="matrix(1,0,0,1,247,116)"><g><g/></g><g><g/></g><g><g/></g><g><g/></g><g><g/><text fill="rgb(0, 0, 0)" stroke="none" font-family="&quot;Arial&quot;" font-size="20px" font-style="normal" font-weight="normal" text-decoration="" line-height="22.75px" x="0" y="18.383331298828125">B</text><text fill="rgb(0, 0, 0)" stroke="none" font-family="&quot;Arial&quot;" font-size="20px" font-style="normal" font-weight="normal" text-decoration="" line-height="22.75px" x="13" y="18.383331298828125">P</text><text fill="rgb(0, 0, 0)" stroke="none" font-family="&quot;Arial&quot;" font-size="20px" font-style="normal" font-weight="normal" text-decoration="" line-height="22.75px" x="26" y="18.383331298828125">:</text><text fill="rgb(0, 0, 0)" stroke="none" font-family="&quot;Arial&quot;" font-size="20px" font-style="normal" font-weight="normal" text-decoration="" line-height="22.75px" x="32" y="18.383331298828125">:</text><text fill="rgb(0, 0, 0)" stroke="none" font-family="&quot;Arial&quot;" font-size="20px" font-style="normal" font-weight="normal" text-decoration="" line-height="22.75px" x="38" y="18.383331298828125">R</text><text fill="rgb(0, 0, 0)" stroke="none" font-family="&quot;Arial&quot;" font-size="20px" font-style="normal" font-weight="normal" text-decoration="" line-height="22.75px" x="52" y="18.383331298828125">u</text><text fill="rgb(0, 0, 0)" stroke="none" font-family="&quot;Arial&quot;" font-size="20px" font-style="normal" font-weight="normal" text-decoration="" line-height="22.75px" x="63" y="18.383331298828125">n</text></g><g><g/></g><g><g/></g><g><g/></g><g><g/></g></g><g transform="translate(0,0) matrix(6.123233995736766e-17,1,-1,6.123233995736766e-17,349.95,140.00000000000006)"><g><g transform="translate(0,0) scale(0.3,0.5)"><g><g transform="scale(3.3333333333333335,2)"><path fill="#FFFFFF" stroke="none" d="M 0 15 L 4.999999999999997 15 L 4.999999999999997 0 L 30 25 L 4.999999999999997 50 L 4.999999999999997 35 L 0 35 L 0 15 Z"/><path fill="none" stroke="#333333" d="M 0 15 M 0 15 L 4.999999999999997 15 L 4.999999999999997 0 L 30 25 L 4.999999999999997 50 L 4.999999999999997 35 L 0 35 L 0 15 Z" stroke-miterlimit="10" stroke-width="2"/></g></g></g></g></g><g transform="translate(0,0) matrix(1,0,0,1,230,170.00000000000006)"><g><g transform="translate(0,0) scale(2.15,0.33)"><g><path fill="#FFFFFF" stroke="none" d="M 0 0 L 100 0 Q 100 0 100 0 L 100 100 Q 100 100 100 100 L 0 100 Q 0 100 0 100 L 0 0 Q 0 0 0 0 Z"/><g transform="scale(0.46511627906976744,3.0303030303030303)"><path fill="none" stroke="none" d="M 0 0 L 215 0 Q 215 0 215 0 L 215 33 Q 215 33 215 33 L 0 33 Q 0 33 0 33 L 0 0 Q 0 0 0 0 Z"/><path fill="none" stroke="#333333" d="M 0 0 M 0 0 L 215 0 Q 215 0 215 0 L 215 33 Q 215 33 215 33 L 0 33 Q 0 33 0 33 L 0 0 Q 0 0 0 0 Z" stroke-miterlimit="10" stroke-width="2"/></g></g></g></g></g><g transform="matrix(1,0,0,1,242,178)"><g><g/></g><g><g/></g><g><g/><text fill="rgb(0, 0, 0)" stroke="none" font-family="&quot;Arial&quot;" font-size="20px" font-style="normal" font-weight="normal" text-decoration="" line-height="22.75px" x="38" y="18.383331298828125">f</text><text fill="rgb(0, 0, 0)" stroke="none" font-family="&quot;Arial&quot;" font-size="20px" font-style="normal" font-weight="normal" text-decoration="" line-height="22.75px" x="44" y="18.383331298828125">i</text><text fill="rgb(0, 0, 0)" stroke="none" font-family="&quot;Arial&quot;" font-size="20px" font-style="normal" font-weight="normal" text-decoration="" line-height="22.75px" x="48" y="18.383331298828125">n</text><text fill="rgb(0, 0, 0)" stroke="none" font-family="&quot;Arial&quot;" font-size="20px" font-style="normal" font-weight="normal" text-decoration="" line-height="22.75px" x="59" y="18.383331298828125">d</text><text fill="rgb(0, 0, 0)" stroke="none" font-family="&quot;Arial&quot;" font-size="20px" font-style="normal" font-weight="normal" text-decoration="" line-height="22.75px" x="70" y="18.383331298828125">M</text><text fill="rgb(0, 0, 0)" stroke="none" font-family="&quot;Arial&quot;" font-size="20px" font-style="normal" font-weight="normal" text-decoration="" line-height="22.75px" x="87" y="18.383331298828125">a</text><text fill="rgb(0, 0, 0)" stroke="none" font-family="&quot;Arial&quot;" font-size="20px" font-style="normal" font-weight="normal" text-decoration="" line-height="22.75px" x="98" y="18.383331298828125">x</text><text fill="rgb(0, 0, 0)" stroke="none" font-family="&quot;Arial&quot;" font-size="20px" font-style="normal" font-weight="normal" text-decoration="" line-height="22.75px" x="108" y="18.383331298828125">R</text><text fill="rgb(0, 0, 0)" stroke="none" font-family="&quot;Arial&quot;" font-size="20px" font-style="normal" font-weight="normal" text-decoration="" line-height="22.75px" x="122" y="18.383331298828125">e</text><text fill="rgb(0, 0, 0)" stroke="none" font-family="&quot;Arial&quot;" font-size="20px" font-style="normal" font-weight="normal" text-decoration="" line-height="22.75px" x="133" y="18.383331298828125">s</text><text fill="rgb(0, 0, 0)" stroke="none" font-family="&quot;Arial&quot;" font-size="20px" font-style="normal" font-weight="normal" text-decoration="" line-height="22.75px" x="143" y="18.383331298828125">i</text><text fill="rgb(0, 0, 0)" stroke="none" font-family="&quot;Arial&quot;" font-size="20px" font-style="normal" font-weight="normal" text-decoration="" line-height="22.75px" x="147" y="18.383331298828125">d</text><text fill="rgb(0, 0, 0)" stroke="none" font-family="&quot;Arial&quot;" font-size="20px" font-style="normal" font-weight="normal" text-decoration="" line-height="22.75px" x="158" y="18.383331298828125">u</text><text fill="rgb(0, 0, 0)" stroke="none" font-family="&quot;Arial&quot;" font-size="20px" font-style="normal" font-weight="normal" text-decoration="" line-height="22.75px" x="169" y="18.383331298828125">a</text><text fill="rgb(0, 0, 0)" stroke="none" font-family="&quot;Arial&quot;" font-size="20px" font-style="normal" font-weight="normal" text-decoration="" line-height="22.75px" x="180" y="18.383331298828125">l</text></g><g><g/><text fill="rgb(0, 0, 0)" stroke="none" font-family="&quot;Arial&quot;" font-size="20px" font-style="normal" font-weight="normal" text-decoration="" line-height="22.75px" x="0" y="18.383331298828125">B</text><text fill="rgb(0, 0, 0)" stroke="none" font-family="&quot;Arial&quot;" font-size="20px" font-style="normal" font-weight="normal" text-decoration="" line-height="22.75px" x="13" y="18.383331298828125">P</text><text fill="rgb(0, 0, 0)" stroke="none" font-family="&quot;Arial&quot;" font-size="20px" font-style="normal" font-weight="normal" text-decoration="" line-height="22.75px" x="26" y="18.383331298828125">:</text><text fill="rgb(0, 0, 0)" stroke="none" font-family="&quot;Arial&quot;" font-size="20px" font-style="normal" font-weight="normal" text-decoration="" line-height="22.75px" x="32" y="18.383331298828125">:</text></g></g><g transform="translate(0,0) matrix(6.123233995736766e-17,1,-1,6.123233995736766e-17,499.9000000000001,140)"><g><g transform="translate(0,0) scale(0.75,0.5)"><g><g transform="scale(1.3333333333333333,2)"><path fill="#FFFFFF" stroke="none" d="M 0 15 L 49.99999999999999 15 L 49.99999999999999 0 L 75 25 L 49.99999999999999 50 L 49.99999999999999 35 L 0 35 L 0 15 Z"/><path fill="none" stroke="#333333" d="M 0 15 M 0 15 L 49.99999999999999 15 L 49.99999999999999 0 L 75 25 L 49.99999999999999 50 L 49.99999999999999 35 L 0 35 L 0 15 Z" stroke-miterlimit="10" stroke-width="2"/></g></g></g></g></g><g transform="translate(0,0) matrix(1,0,0,1,302.45,215)"><g><g transform="translate(0,0) scale(2.15,0.34)"><g><path fill="#FFFFFF" stroke="none" d="M 0 0 L 100 0 Q 100 0 100 0 L 100 100 Q 100 100 100 100 L 0 100 Q 0 100 0 100 L 0 0 Q 0 0 0 0 Z"/><g transform="scale(0.46511627906976744,2.941176470588235)"><path fill="none" stroke="none" d="M 0 0 L 215 0 Q 215 0 215 0 L 215 34 Q 215 34 215 34 L 0 34 Q 0 34 0 34 L 0 0 Q 0 0 0 0 Z"/><path fill="none" stroke="#333333" d="M 0 0 M 0 0 L 215 0 Q 215 0 215 0 L 215 34 Q 215 34 215 34 L 0 34 Q 0 34 0 34 L 0 0 Q 0 0 0 0 Z" stroke-miterlimit="10" stroke-width="2"/></g></g></g></g></g><g transform="matrix(1,0,0,1,315,223)"><g><g/></g><g><g/></g><g><g/><text fill="rgb(0, 0, 0)" stroke="none" font-family="&quot;Arial&quot;" font-size="20px" font-style="normal" font-weight="normal" text-decoration="" line-height="22.75px" x="38" y="18.383331298828125">u</text><text fill="rgb(0, 0, 0)" stroke="none" font-family="&quot;Arial&quot;" font-size="20px" font-style="normal" font-weight="normal" text-decoration="" line-height="22.75px" x="49" y="18.383331298828125">p</text><text fill="rgb(0, 0, 0)" stroke="none" font-family="&quot;Arial&quot;" font-size="20px" font-style="normal" font-weight="normal" text-decoration="" line-height="22.75px" x="60" y="18.383331298828125">d</text><text fill="rgb(0, 0, 0)" stroke="none" font-family="&quot;Arial&quot;" font-size="20px" font-style="normal" font-weight="normal" text-decoration="" line-height="22.75px" x="71" y="18.383331298828125">a</text><text fill="rgb(0, 0, 0)" stroke="none" font-family="&quot;Arial&quot;" font-size="20px" font-style="normal" font-weight="normal" text-decoration="" line-height="22.75px" x="82" y="18.383331298828125">t</text><text fill="rgb(0, 0, 0)" stroke="none" font-family="&quot;Arial&quot;" font-size="20px" font-style="normal" font-weight="normal" text-decoration="" line-height="22.75px" x="88" y="18.383331298828125">e</text><text fill="rgb(0, 0, 0)" stroke="none" font-family="&quot;Arial&quot;" font-size="20px" font-style="normal" font-weight="normal" text-decoration="" line-height="22.75px" x="99" y="18.383331298828125">M</text><text fill="rgb(0, 0, 0)" stroke="none" font-family="&quot;Arial&quot;" font-size="20px" font-style="normal" font-weight="normal" text-decoration="" line-height="22.75px" x="116" y="18.383331298828125">e</text><text fill="rgb(0, 0, 0)" stroke="none" font-family="&quot;Arial&quot;" font-size="20px" font-style="normal" font-weight="normal" text-decoration="" line-height="22.75px" x="127" y="18.383331298828125">s</text><text fill="rgb(0, 0, 0)" stroke="none" font-family="&quot;Arial&quot;" font-size="20px" font-style="normal" font-weight="normal" text-decoration="" line-height="22.75px" x="137" y="18.383331298828125">s</text><text fill="rgb(0, 0, 0)" stroke="none" font-family="&quot;Arial&quot;" font-size="20px" font-style="normal" font-weight="normal" text-decoration="" line-height="22.75px" x="147" y="18.383331298828125">a</text><text fill="rgb(0, 0, 0)" stroke="none" font-family="&quot;Arial&quot;" font-size="20px" font-style="normal" font-weight="normal" text-decoration="" line-height="22.75px" x="158" y="18.383331298828125">g</text><text fill="rgb(0, 0, 0)" stroke="none" font-family="&quot;Arial&quot;" font-size="20px" font-style="normal" font-weight="normal" text-decoration="" line-height="22.75px" x="169" y="18.383331298828125">e</text></g><g><g/><text fill="rgb(0, 0, 0)" stroke="none" font-family="&quot;Arial&quot;" font-size="20px" font-style="normal" font-weight="normal" text-decoration="" line-height="22.75px" x="0" y="18.383331298828125">B</text><text fill="rgb(0, 0, 0)" stroke="none" font-family="&quot;Arial&quot;" font-size="20px" font-style="normal" font-weight="normal" text-decoration="" line-height="22.75px" x="13" y="18.383331298828125">P</text><text fill="rgb(0, 0, 0)" stroke="none" font-family="&quot;Arial&quot;" font-size="20px" font-style="normal" font-weight="normal" text-decoration="" line-height="22.75px" x="26" y="18.383331298828125">:</text><text fill="rgb(0, 0, 0)" stroke="none" font-family="&quot;Arial&quot;" font-size="20px" font-style="normal" font-weight="normal" text-decoration="" line-height="22.75px" x="32" y="18.383331298828125">:</text></g><g><g/></g><g><g/></g><g><g/></g><g><g/></g></g><g transform="translate(0,0) matrix(6.123233995736766e-17,1,-1,6.123233995736766e-17,606.9000000000001,140.00000000000006)"><g><g transform="translate(0,0) scale(1.23,0.5)"><g><g transform="scale(0.8130081300813008,2)"><path fill="#FFFFFF" stroke="none" d="M 0 15 L 98 15 L 98 0 L 123 25 L 98 50 L 98 35 L 0 35 L 0 15 Z"/><path fill="none" stroke="#333333" d="M 0 15 M 0 15 L 98 15 L 98 0 L 123 25 L 98 50 L 98 35 L 0 35 L 0 15 Z" stroke-miterlimit="10" stroke-width="2"/></g></g></g></g></g><g transform="translate(0,0) matrix(1,0,0,1,414.95000000000016,263.00000000000006)"><g><g transform="translate(0,0) scale(2.56,0.34)"><g><path fill="#FFFFFF" stroke="none" d="M 0 0 L 100 0 Q 100 0 100 0 L 100 100 Q 100 100 100 100 L 0 100 Q 0 100 0 100 L 0 0 Q 0 0 0 0 Z"/><g transform="scale(0.390625,2.941176470588235)"><path fill="none" stroke="none" d="M 0 0 L 256 0 Q 256 0 256 0 L 256 34 Q 256 34 256 34 L 0 34 Q 0 34 0 34 L 0 0 Q 0 0 0 0 Z"/><path fill="none" stroke="#333333" d="M 0 0 M 0 0 L 256 0 Q 256 0 256 0 L 256 34 Q 256 34 256 34 L 0 34 Q 0 34 0 34 L 0 0 Q 0 0 0 0 Z" stroke-miterlimit="10" stroke-width="2"/></g></g></g></g></g><g transform="matrix(1,0,0,1,428,271)"><g><g/></g><g><g/></g><g><g/><text fill="rgb(0, 0, 0)" stroke="none" font-family="&quot;Arial&quot;" font-size="20px" font-style="normal" font-weight="normal" text-decoration="" line-height="22.75px" x="38" y="18.383331298828125">c</text><text fill="rgb(0, 0, 0)" stroke="none" font-family="&quot;Arial&quot;" font-size="20px" font-style="normal" font-weight="normal" text-decoration="" line-height="22.75px" x="48" y="18.383331298828125">a</text><text fill="rgb(0, 0, 0)" stroke="none" font-family="&quot;Arial&quot;" font-size="20px" font-style="normal" font-weight="normal" text-decoration="" line-height="22.75px" x="59" y="18.383331298828125">l</text><text fill="rgb(0, 0, 0)" stroke="none" font-family="&quot;Arial&quot;" font-size="20px" font-style="normal" font-weight="normal" text-decoration="" line-height="22.75px" x="63" y="18.383331298828125">c</text><text fill="rgb(0, 0, 0)" stroke="none" font-family="&quot;Arial&quot;" font-size="20px" font-style="normal" font-weight="normal" text-decoration="" line-height="22.75px" x="73" y="18.383331298828125">N</text><text fill="rgb(0, 0, 0)" stroke="none" font-family="&quot;Arial&quot;" font-size="20px" font-style="normal" font-weight="normal" text-decoration="" line-height="22.75px" x="87" y="18.383331298828125">e</text><text fill="rgb(0, 0, 0)" stroke="none" font-family="&quot;Arial&quot;" font-size="20px" font-style="normal" font-weight="normal" text-decoration="" line-height="22.75px" x="98" y="18.383331298828125">w</text><text fill="rgb(0, 0, 0)" stroke="none" font-family="&quot;Arial&quot;" font-size="20px" font-style="normal" font-weight="normal" text-decoration="" line-height="22.75px" x="112" y="18.383331298828125">M</text><text fill="rgb(0, 0, 0)" stroke="none" font-family="&quot;Arial&quot;" font-size="20px" font-style="normal" font-weight="normal" text-decoration="" line-height="22.75px" x="129" y="18.383331298828125">e</text><text fill="rgb(0, 0, 0)" stroke="none" font-family="&quot;Arial&quot;" font-size="20px" font-style="normal" font-weight="normal" text-decoration="" line-height="22.75px" x="140" y="18.383331298828125">s</text><text fill="rgb(0, 0, 0)" stroke="none" font-family="&quot;Arial&quot;" font-size="20px" font-style="normal" font-weight="normal" text-decoration="" line-height="22.75px" x="150" y="18.383331298828125">s</text><text fill="rgb(0, 0, 0)" stroke="none" font-family="&quot;Arial&quot;" font-size="20px" font-style="normal" font-weight="normal" text-decoration="" line-height="22.75px" x="160" y="18.383331298828125">a</text><text fill="rgb(0, 0, 0)" stroke="none" font-family="&quot;Arial&quot;" font-size="20px" font-style="normal" font-weight="normal" text-decoration="" line-height="22.75px" x="171" y="18.383331298828125">g</text><text fill="rgb(0, 0, 0)" stroke="none" font-family="&quot;Arial&quot;" font-size="20px" font-style="normal" font-weight="normal" text-decoration="" line-height="22.75px" x="182" y="18.383331298828125">e</text></g><g><g/><text fill="rgb(0, 0, 0)" stroke="none" font-family="&quot;Arial&quot;" font-size="20px" font-style="normal" font-weight="normal" text-decoration="" line-height="22.75px" x="0" y="18.383331298828125">B</text><text fill="rgb(0, 0, 0)" stroke="none" font-family="&quot;Arial&quot;" font-size="20px" font-style="normal" font-weight="normal" text-decoration="" line-height="22.75px" x="13" y="18.383331298828125">P</text><text fill="rgb(0, 0, 0)" stroke="none" font-family="&quot;Arial&quot;" font-size="20px" font-style="normal" font-weight="normal" text-decoration="" line-height="22.75px" x="26" y="18.383331298828125">:</text><text fill="rgb(0, 0, 0)" stroke="none" font-family="&quot;Arial&quot;" font-size="20px" font-style="normal" font-weight="normal" text-decoration="" line-height="22.75px" x="32" y="18.383331298828125">:</text></g><g><g/></g><g><g/></g></g><g transform="translate(0,0) matrix(6.123233995736766e-17,1,-1,6.123233995736766e-17,533.9500000000002,297.00000000000006)"><g><g transform="translate(0,0) scale(0.32,0.5)"><g><g transform="scale(3.125,2)"><path fill="#FFFFFF" stroke="none" d="M 0 15 L 7 15 L 7 0 L 32 25 L 7 50 L 7 35 L 0 35 L 0 15 Z"/><path fill="none" stroke="#333333" d="M 0 15 M 0 15 L 7 15 L 7 0 L 32 25 L 7 50 L 7 35 L 0 35 L 0 15 Z" stroke-miterlimit="10" stroke-width="2"/></g></g></g></g></g><g transform="translate(0,0) matrix(1,0,0,1,318.9500000000002,329.5)"><g><g transform="translate(0,0) scale(2.15,0.36)"><g><path fill="#FFFFFF" stroke="none" d="M 0 0 L 100 0 Q 100 0 100 0 L 100 100 Q 100 100 100 100 L 0 100 Q 0 100 0 100 L 0 0 Q 0 0 0 0 Z"/><g transform="scale(0.46511627906976744,2.7777777777777777)"><path fill="none" stroke="none" d="M 0 0 L 215 0 Q 215 0 215 0 L 215 36 Q 215 36 215 36 L 0 36 Q 0 36 0 36 L 0 0 Q 0 0 0 0 Z"/><path fill="none" stroke="#333333" d="M 0 0 M 0 0 L 215 0 Q 215 0 215 0 L 215 36 Q 215 36 215 36 L 0 36 Q 0 36 0 36 L 0 0 Q 0 0 0 0 Z" stroke-miterlimit="10" stroke-width="2"/></g></g></g></g></g><g transform="matrix(1,0,0,1,331,338)"><g><g/></g><g><g/></g><g><g/><text fill="rgb(0, 0, 0)" stroke="none" font-family="&quot;Arial&quot;" font-size="20px" font-style="normal" font-weight="normal" text-decoration="" line-height="22.75px" x="38" y="18.383331298828125">u</text><text fill="rgb(0, 0, 0)" stroke="none" font-family="&quot;Arial&quot;" font-size="20px" font-style="normal" font-weight="normal" text-decoration="" line-height="22.75px" x="49" y="18.383331298828125">p</text><text fill="rgb(0, 0, 0)" stroke="none" font-family="&quot;Arial&quot;" font-size="20px" font-style="normal" font-weight="normal" text-decoration="" line-height="22.75px" x="60" y="18.383331298828125">d</text><text fill="rgb(0, 0, 0)" stroke="none" font-family="&quot;Arial&quot;" font-size="20px" font-style="normal" font-weight="normal" text-decoration="" line-height="22.75px" x="71" y="18.383331298828125">a</text><text fill="rgb(0, 0, 0)" stroke="none" font-family="&quot;Arial&quot;" font-size="20px" font-style="normal" font-weight="normal" text-decoration="" line-height="22.75px" x="82" y="18.383331298828125">t</text><text fill="rgb(0, 0, 0)" stroke="none" font-family="&quot;Arial&quot;" font-size="20px" font-style="normal" font-weight="normal" text-decoration="" line-height="22.75px" x="88" y="18.383331298828125">e</text><text fill="rgb(0, 0, 0)" stroke="none" font-family="&quot;Arial&quot;" font-size="20px" font-style="normal" font-weight="normal" text-decoration="" line-height="22.75px" x="99" y="18.383331298828125">R</text><text fill="rgb(0, 0, 0)" stroke="none" font-family="&quot;Arial&quot;" font-size="20px" font-style="normal" font-weight="normal" text-decoration="" line-height="22.75px" x="113" y="18.383331298828125">e</text><text fill="rgb(0, 0, 0)" stroke="none" font-family="&quot;Arial&quot;" font-size="20px" font-style="normal" font-weight="normal" text-decoration="" line-height="22.75px" x="124" y="18.383331298828125">s</text><text fill="rgb(0, 0, 0)" stroke="none" font-family="&quot;Arial&quot;" font-size="20px" font-style="normal" font-weight="normal" text-decoration="" line-height="22.75px" x="134" y="18.383331298828125">i</text><text fill="rgb(0, 0, 0)" stroke="none" font-family="&quot;Arial&quot;" font-size="20px" font-style="normal" font-weight="normal" text-decoration="" line-height="22.75px" x="138" y="18.383331298828125">d</text><text fill="rgb(0, 0, 0)" stroke="none" font-family="&quot;Arial&quot;" font-size="20px" font-style="normal" font-weight="normal" text-decoration="" line-height="22.75px" x="149" y="18.383331298828125">u</text><text fill="rgb(0, 0, 0)" stroke="none" font-family="&quot;Arial&quot;" font-size="20px" font-style="normal" font-weight="normal" text-decoration="" line-height="22.75px" x="160" y="18.383331298828125">a</text><text fill="rgb(0, 0, 0)" stroke="none" font-family="&quot;Arial&quot;" font-size="20px" font-style="normal" font-weight="normal" text-decoration="" line-height="22.75px" x="171" y="18.383331298828125">l</text></g><g><g/><text fill="rgb(0, 0, 0)" stroke="none" font-family="&quot;Arial&quot;" font-size="20px" font-style="normal" font-weight="normal" text-decoration="" line-height="22.75px" x="0" y="18.383331298828125">B</text><text fill="rgb(0, 0, 0)" stroke="none" font-family="&quot;Arial&quot;" font-size="20px" font-style="normal" font-weight="normal" text-decoration="" line-height="22.75px" x="13" y="18.383331298828125">P</text><text fill="rgb(0, 0, 0)" stroke="none" font-family="&quot;Arial&quot;" font-size="20px" font-style="normal" font-weight="normal" text-decoration="" line-height="22.75px" x="26" y="18.383331298828125">:</text><text fill="rgb(0, 0, 0)" stroke="none" font-family="&quot;Arial&quot;" font-size="20px" font-style="normal" font-weight="normal" text-decoration="" line-height="22.75px" x="32" y="18.383331298828125">:</text></g><g><g/></g><g><g/></g></g><g transform="translate(0,0) matrix(6.123233995736766e-17,1,-1,6.123233995736766e-17,470,78.00000000000006)"><g><g transform="translate(0,0) scale(0.3,0.5)"><g><g transform="scale(3.3333333333333335,2)"><path fill="#FFFFFF" stroke="none" d="M 0 15 L 4.999999999999997 15 L 4.999999999999997 0 L 30 25 L 4.999999999999997 50 L 4.999999999999997 35 L 0 35 L 0 15 Z"/><path fill="none" stroke="#333333" d="M 0 15 M 0 15 L 4.999999999999997 15 L 4.999999999999997 0 L 30 25 L 4.999999999999997 50 L 4.999999999999997 35 L 0 35 L 0 15 Z" stroke-miterlimit="10" stroke-width="2"/></g></g></g></g></g><g transform="translate(0,0) matrix(6.123233995736766e-17,1,-1,6.123233995736766e-17,592.9500000000002,297)"><g><g transform="translate(0,0) scale(0.8,0.5)"><g><g transform="scale(1.25,2)"><path fill="#FFFFFF" stroke="none" d="M 0 15 L 55 15 L 55 0 L 80 25 L 55 50 L 55 35 L 0 35 L 0 15 Z"/><path fill="none" stroke="#333333" d="M 0 15 M 0 15 L 55 15 L 55 0 L 80 25 L 55 50 L 55 35 L 0 35 L 0 15 Z" stroke-miterlimit="10" stroke-width="2"/></g></g></g></g></g><g transform="translate(0,0) matrix(1,0,0,1,337.99999999999994,377)"><g><g transform="translate(0,0) scale(2.64,0.57)"><g><path fill="#FFFFFF" stroke="none" d="M 0 0 L 100 0 Q 100 0 100 0 L 100 100 Q 100 100 100 100 L 0 100 Q 0 100 0 100 L 0 0 Q 0 0 0 0 Z"/><g transform="scale(0.3787878787878788,1.7543859649122808)"><path fill="none" stroke="none" d="M 0 0 L 264 0 Q 264 0 264 0 L 264 56.99999999999999 Q 264 56.99999999999999 264 56.99999999999999 L 0 56.99999999999999 Q 0 56.99999999999999 0 56.99999999999999 L 0 0 Q 0 0 0 0 Z"/><path fill="none" stroke="#333333" d="M 0 0 M 0 0 L 264 0 Q 264 0 264 0 L 264 56.99999999999999 Q 264 56.99999999999999 264 56.99999999999999 L 0 56.99999999999999 Q 0 56.99999999999999 0 56.99999999999999 L 0 0 Q 0 0 0 0 Z" stroke-miterlimit="10" stroke-width="2"/></g></g></g></g></g><g transform="matrix(1,0,0,1,351,385)"><g><g/></g><g><g/></g><g><g/><text fill="rgb(0, 0, 0)" stroke="none" font-family="&quot;Arial&quot;" font-size="20px" font-style="normal" font-weight="normal" text-decoration="" line-height="22.75px" x="38" y="18.383331298828125">c</text><text fill="rgb(0, 0, 0)" stroke="none" font-family="&quot;Arial&quot;" font-size="20px" font-style="normal" font-weight="normal" text-decoration="" line-height="22.75px" x="48" y="18.383331298828125">a</text><text fill="rgb(0, 0, 0)" stroke="none" font-family="&quot;Arial&quot;" font-size="20px" font-style="normal" font-weight="normal" text-decoration="" line-height="22.75px" x="59" y="18.383331298828125">l</text><text fill="rgb(0, 0, 0)" stroke="none" font-family="&quot;Arial&quot;" font-size="20px" font-style="normal" font-weight="normal" text-decoration="" line-height="22.75px" x="63" y="18.383331298828125">c</text><text fill="rgb(0, 0, 0)" stroke="none" font-family="&quot;Arial&quot;" font-size="20px" font-style="normal" font-weight="normal" text-decoration="" line-height="22.75px" x="73" y="18.383331298828125">I</text><text fill="rgb(0, 0, 0)" stroke="none" font-family="&quot;Arial&quot;" font-size="20px" font-style="normal" font-weight="normal" text-decoration="" line-height="22.75px" x="79" y="18.383331298828125">n</text><text fill="rgb(0, 0, 0)" stroke="none" font-family="&quot;Arial&quot;" font-size="20px" font-style="normal" font-weight="normal" text-decoration="" line-height="22.75px" x="90" y="18.383331298828125">c</text><text fill="rgb(0, 0, 0)" stroke="none" font-family="&quot;Arial&quot;" font-size="20px" font-style="normal" font-weight="normal" text-decoration="" line-height="22.75px" x="100" y="18.383331298828125">o</text><text fill="rgb(0, 0, 0)" stroke="none" font-family="&quot;Arial&quot;" font-size="20px" font-style="normal" font-weight="normal" text-decoration="" line-height="22.75px" x="111" y="18.383331298828125">m</text><text fill="rgb(0, 0, 0)" stroke="none" font-family="&quot;Arial&quot;" font-size="20px" font-style="normal" font-weight="normal" text-decoration="" line-height="22.75px" x="128" y="18.383331298828125">i</text><text fill="rgb(0, 0, 0)" stroke="none" font-family="&quot;Arial&quot;" font-size="20px" font-style="normal" font-weight="normal" text-decoration="" line-height="22.75px" x="132" y="18.383331298828125">n</text><text fill="rgb(0, 0, 0)" stroke="none" font-family="&quot;Arial&quot;" font-size="20px" font-style="normal" font-weight="normal" text-decoration="" line-height="22.75px" x="143" y="18.383331298828125">g</text><text fill="rgb(0, 0, 0)" stroke="none" font-family="&quot;Arial&quot;" font-size="20px" font-style="normal" font-weight="normal" text-decoration="" line-height="22.75px" x="154" y="18.383331298828125">M</text><text fill="rgb(0, 0, 0)" stroke="none" font-family="&quot;Arial&quot;" font-size="20px" font-style="normal" font-weight="normal" text-decoration="" line-height="22.75px" x="171" y="18.383331298828125">e</text><text fill="rgb(0, 0, 0)" stroke="none" font-family="&quot;Arial&quot;" font-size="20px" font-style="normal" font-weight="normal" text-decoration="" line-height="22.75px" x="182" y="18.383331298828125">s</text><text fill="rgb(0, 0, 0)" stroke="none" font-family="&quot;Arial&quot;" font-size="20px" font-style="normal" font-weight="normal" text-decoration="" line-height="22.75px" x="192" y="18.383331298828125">s</text><text fill="rgb(0, 0, 0)" stroke="none" font-family="&quot;Arial&quot;" font-size="20px" font-style="normal" font-weight="normal" text-decoration="" line-height="22.75px" x="202" y="18.383331298828125">a</text><text fill="rgb(0, 0, 0)" stroke="none" font-family="&quot;Arial&quot;" font-size="20px" font-style="normal" font-weight="normal" text-decoration="" line-height="22.75px" x="213" y="18.383331298828125">g</text><text fill="rgb(0, 0, 0)" stroke="none" font-family="&quot;Arial&quot;" font-size="20px" font-style="normal" font-weight="normal" text-decoration="" line-height="22.75px" x="224" y="18.383331298828125">e</text><text fill="rgb(0, 0, 0)" stroke="none" font-family="&quot;Arial&quot;" font-size="20px" font-style="normal" font-weight="normal" text-decoration="" line-height="22.75px" x="0" y="41.133331298828125">P</text><text fill="rgb(0, 0, 0)" stroke="none" font-family="&quot;Arial&quot;" font-size="20px" font-style="normal" font-weight="normal" text-decoration="" line-height="22.75px" x="13" y="41.133331298828125">r</text><text fill="rgb(0, 0, 0)" stroke="none" font-family="&quot;Arial&quot;" font-size="20px" font-style="normal" font-weight="normal" text-decoration="" line-height="22.75px" x="20" y="41.133331298828125">o</text><text fill="rgb(0, 0, 0)" stroke="none" font-family="&quot;Arial&quot;" font-size="20px" font-style="normal" font-weight="normal" text-decoration="" line-height="22.75px" x="31" y="41.133331298828125">d</text><text fill="rgb(0, 0, 0)" stroke="none" font-family="&quot;Arial&quot;" font-size="20px" font-style="normal" font-weight="normal" text-decoration="" line-height="22.75px" x="42" y="41.133331298828125">u</text><text fill="rgb(0, 0, 0)" stroke="none" font-family="&quot;Arial&quot;" font-size="20px" font-style="normal" font-weight="normal" text-decoration="" line-height="22.75px" x="53" y="41.133331298828125">c</text><text fill="rgb(0, 0, 0)" stroke="none" font-family="&quot;Arial&quot;" font-size="20px" font-style="normal" font-weight="normal" text-decoration="" line-height="22.75px" x="63" y="41.133331298828125">t</text></g><g><g/><text fill="rgb(0, 0, 0)" stroke="none" font-family="&quot;Arial&quot;" font-size="20px" font-style="normal" font-weight="normal" text-decoration="" line-height="22.75px" x="0" y="18.383331298828125">B</text><text fill="rgb(0, 0, 0)" stroke="none" font-family="&quot;Arial&quot;" font-size="20px" font-style="normal" font-weight="normal" text-decoration="" line-height="22.75px" x="13" y="18.383331298828125">P</text><text fill="rgb(0, 0, 0)" stroke="none" font-family="&quot;Arial&quot;" font-size="20px" font-style="normal" font-weight="normal" text-decoration="" line-height="22.75px" x="26" y="18.383331298828125">:</text><text fill="rgb(0, 0, 0)" stroke="none" font-family="&quot;Arial&quot;" font-size="20px" font-style="normal" font-weight="normal" text-decoration="" line-height="22.75px" x="32" y="18.383331298828125">:</text></g><g><g/></g><g><g/></g></g><g transform="translate(0,0) matrix(1,0,0,1,439.4000000000001,447)"><g><g transform="translate(0,0) scale(2.35,0.56)"><g><path fill="#FFFFFF" stroke="none" d="M 0 0 L 100 0 Q 100 0 100 0 L 100 100 Q 100 100 100 100 L 0 100 Q 0 100 0 100 L 0 0 Q 0 0 0 0 Z"/><g transform="scale(0.425531914893617,1.7857142857142856)"><path fill="none" stroke="none" d="M 0 0 L 235 0 Q 235 0 235 0 L 235 56.00000000000001 Q 235 56.00000000000001 235 56.00000000000001 L 0 56.00000000000001 Q 0 56.00000000000001 0 56.00000000000001 L 0 0 Q 0 0 0 0 Z"/><path fill="none" stroke="#333333" d="M 0 0 M 0 0 L 235 0 Q 235 0 235 0 L 235 56.00000000000001 Q 235 56.00000000000001 235 56.00000000000001 L 0 56.00000000000001 Q 0 56.00000000000001 0 56.00000000000001 L 0 0 Q 0 0 0 0 Z" stroke-miterlimit="10" stroke-width="2"/></g></g></g></g></g><g transform="matrix(1,0,0,1,452,455)"><g><g/></g><g><g/></g><g><g/></g><g><g/><text fill="rgb(0, 0, 0)" stroke="none" font-family="&quot;Arial&quot;" font-size="20px" font-style="normal" font-weight="normal" text-decoration="" line-height="22.75px" x="0" y="18.383331298828125">B</text><text fill="rgb(0, 0, 0)" stroke="none" font-family="&quot;Arial&quot;" font-size="20px" font-style="normal" font-weight="normal" text-decoration="" line-height="22.75px" x="13" y="18.383331298828125">P</text><text fill="rgb(0, 0, 0)" stroke="none" font-family="&quot;Arial&quot;" font-size="20px" font-style="normal" font-weight="normal" text-decoration="" line-height="22.75px" x="26" y="18.383331298828125">:</text><text fill="rgb(0, 0, 0)" stroke="none" font-family="&quot;Arial&quot;" font-size="20px" font-style="normal" font-weight="normal" text-decoration="" line-height="22.75px" x="32" y="18.383331298828125">:</text></g><g><g/><text fill="rgb(0, 0, 0)" stroke="none" font-family="&quot;Arial&quot;" font-size="20px" font-style="normal" font-weight="normal" text-decoration="" line-height="22.75px" x="38" y="18.383331298828125">m</text><text fill="rgb(0, 0, 0)" stroke="none" font-family="&quot;Arial&quot;" font-size="20px" font-style="normal" font-weight="normal" text-decoration="" line-height="22.75px" x="55" y="18.383331298828125">a</text><text fill="rgb(0, 0, 0)" stroke="none" font-family="&quot;Arial&quot;" font-size="20px" font-style="normal" font-weight="normal" text-decoration="" line-height="22.75px" x="66" y="18.383331298828125">r</text><text fill="rgb(0, 0, 0)" stroke="none" font-family="&quot;Arial&quot;" font-size="20px" font-style="normal" font-weight="normal" text-decoration="" line-height="22.75px" x="73" y="18.383331298828125">g</text><text fill="rgb(0, 0, 0)" stroke="none" font-family="&quot;Arial&quot;" font-size="20px" font-style="normal" font-weight="normal" text-decoration="" line-height="22.75px" x="84" y="18.383331298828125">i</text><text fill="rgb(0, 0, 0)" stroke="none" font-family="&quot;Arial&quot;" font-size="20px" font-style="normal" font-weight="normal" text-decoration="" line-height="22.75px" x="88" y="18.383331298828125">n</text><text fill="rgb(0, 0, 0)" stroke="none" font-family="&quot;Arial&quot;" font-size="20px" font-style="normal" font-weight="normal" text-decoration="" line-height="22.75px" x="99" y="18.383331298828125">a</text><text fill="rgb(0, 0, 0)" stroke="none" font-family="&quot;Arial&quot;" font-size="20px" font-style="normal" font-weight="normal" text-decoration="" line-height="22.75px" x="110" y="18.383331298828125">l</text><text fill="rgb(0, 0, 0)" stroke="none" font-family="&quot;Arial&quot;" font-size="20px" font-style="normal" font-weight="normal" text-decoration="" line-height="22.75px" x="114" y="18.383331298828125">i</text><text fill="rgb(0, 0, 0)" stroke="none" font-family="&quot;Arial&quot;" font-size="20px" font-style="normal" font-weight="normal" text-decoration="" line-height="22.75px" x="118" y="18.383331298828125">z</text><text fill="rgb(0, 0, 0)" stroke="none" font-family="&quot;Arial&quot;" font-size="20px" font-style="normal" font-weight="normal" text-decoration="" line-height="22.75px" x="128" y="18.383331298828125">e</text><text fill="rgb(0, 0, 0)" stroke="none" font-family="&quot;Arial&quot;" font-size="20px" font-style="normal" font-weight="normal" text-decoration="" line-height="22.75px" x="139" y="18.383331298828125">P</text><text fill="rgb(0, 0, 0)" stroke="none" font-family="&quot;Arial&quot;" font-size="20px" font-style="normal" font-weight="normal" text-decoration="" line-height="22.75px" x="152" y="18.383331298828125">r</text><text fill="rgb(0, 0, 0)" stroke="none" font-family="&quot;Arial&quot;" font-size="20px" font-style="normal" font-weight="normal" text-decoration="" line-height="22.75px" x="159" y="18.383331298828125">o</text><text fill="rgb(0, 0, 0)" stroke="none" font-family="&quot;Arial&quot;" font-size="20px" font-style="normal" font-weight="normal" text-decoration="" line-height="22.75px" x="170" y="18.383331298828125">d</text><text fill="rgb(0, 0, 0)" stroke="none" font-family="&quot;Arial&quot;" font-size="20px" font-style="normal" font-weight="normal" text-decoration="" line-height="22.75px" x="181" y="18.383331298828125">u</text><text fill="rgb(0, 0, 0)" stroke="none" font-family="&quot;Arial&quot;" font-size="20px" font-style="normal" font-weight="normal" text-decoration="" line-height="22.75px" x="192" y="18.383331298828125">c</text><text fill="rgb(0, 0, 0)" stroke="none" font-family="&quot;Arial&quot;" font-size="20px" font-style="normal" font-weight="normal" text-decoration="" line-height="22.75px" x="202" y="18.383331298828125">t</text><text fill="rgb(0, 0, 0)" stroke="none" font-family="&quot;Arial&quot;" font-size="20px" font-style="normal" font-weight="normal" text-decoration="" line-height="22.75px" x="0" y="41.133331298828125">O</text><text fill="rgb(0, 0, 0)" stroke="none" font-family="&quot;Arial&quot;" font-size="20px" font-style="normal" font-weight="normal" text-decoration="" line-height="22.75px" x="16" y="41.133331298828125">n</text><text fill="rgb(0, 0, 0)" stroke="none" font-family="&quot;Arial&quot;" font-size="20px" font-style="normal" font-weight="normal" text-decoration="" line-height="22.75px" x="27" y="41.133331298828125">t</text><text fill="rgb(0, 0, 0)" stroke="none" font-family="&quot;Arial&quot;" font-size="20px" font-style="normal" font-weight="normal" text-decoration="" line-height="22.75px" x="33" y="41.133331298828125">o</text><text fill="rgb(0, 0, 0)" stroke="none" font-family="&quot;Arial&quot;" font-size="20px" font-style="normal" font-weight="normal" text-decoration="" line-height="22.75px" x="44" y="41.133331298828125">M</text><text fill="rgb(0, 0, 0)" stroke="none" font-family="&quot;Arial&quot;" font-size="20px" font-style="normal" font-weight="normal" text-decoration="" line-height="22.75px" x="61" y="41.133331298828125">e</text><text fill="rgb(0, 0, 0)" stroke="none" font-family="&quot;Arial&quot;" font-size="20px" font-style="normal" font-weight="normal" text-decoration="" line-height="22.75px" x="72" y="41.133331298828125">s</text><text fill="rgb(0, 0, 0)" stroke="none" font-family="&quot;Arial&quot;" font-size="20px" font-style="normal" font-weight="normal" text-decoration="" line-height="22.75px" x="82" y="41.133331298828125">s</text><text fill="rgb(0, 0, 0)" stroke="none" font-family="&quot;Arial&quot;" font-size="20px" font-style="normal" font-weight="normal" text-decoration="" line-height="22.75px" x="92" y="41.133331298828125">a</text><text fill="rgb(0, 0, 0)" stroke="none" font-family="&quot;Arial&quot;" font-size="20px" font-style="normal" font-weight="normal" text-decoration="" line-height="22.75px" x="103" y="41.133331298828125">g</text><text fill="rgb(0, 0, 0)" stroke="none" font-family="&quot;Arial&quot;" font-size="20px" font-style="normal" font-weight="normal" text-decoration="" line-height="22.75px" x="114" y="41.133331298828125">e</text></g><g><g/></g><g><g/></g></g><g transform="translate(0,0) matrix(6.123233995736766e-17,1,-1,6.123233995736766e-17,374.95,249.00000000000006)"><g><g transform="translate(0,0) scale(0.8,0.5)"><g><g transform="scale(1.25,2)"><path fill="#FFFFFF" stroke="none" d="M 0 15 L 55 15 L 55 0 L 80 25 L 55 50 L 55 35 L 0 35 L 0 15 Z"/><path fill="none" stroke="#333333" d="M 0 15 M 0 15 L 55 15 L 55 0 L 80 25 L 55 50 L 55 35 L 0 35 L 0 15 Z" stroke-miterlimit="10" stroke-width="2"/></g></g></g></g></g><g transform="translate(0,0) matrix(6.123233995736766e-17,1,-1,6.123233995736766e-17,671,297)"><g><g transform="translate(0,0) scale(1.5,0.5)"><g><g transform="scale(0.6666666666666666,2)"><path fill="#FFFFFF" stroke="none" d="M 0 15 L 125 15 L 125 0 L 150 25 L 125 50 L 125 35 L 0 35 L 0 15 Z"/><path fill="none" stroke="#333333" d="M 0 15 M 0 15 L 125 15 L 125 0 L 150 25 L 125 50 L 125 35 L 0 35 L 0 15 Z" stroke-miterlimit="10" stroke-width="2"/></g></g></g></g></g></g></svg>